<svg xmlns="http://www.w3.org/2000/svg" width="64" height="64">
    <path fill="#FFF" fill-rule="evenodd" stroke="#B9BDC5" stroke-width="2" d="M31.799 1.528c16.568 0 29.999 13.431 29.999 30 0 16.568-13.431 30-29.999 30-16.569 0-30.001-13.432-30.001-30 0-16.569 13.432-30 30.001-30z"/>
    <path fill="#0D1018" fill-rule="evenodd" d="M34.471 31.5l5.404 5.657c.746.781.746 2.047 0 2.828-.746.781-1.956.781-2.702 0l-5.403-5.657-6.079 6.364c-.746.782-1.956.782-2.702 0-.746-.781-.746-2.047 0-2.828l6.079-6.364-6.079-6.364c-.746-.781-.746-2.047 0-2.828.746-.781 1.956-.781 2.702 0l6.079 6.364 5.403-5.657c.746-.781 1.956-.781 2.702 0s.746 2.047 0 2.828L34.471 31.5z"/>
</svg>
