<svg xmlns="http://www.w3.org/2000/svg" width="166" height="166" fill="none" viewBox="0 0 166 166">
    <path fill="url(#paint0_linear)" d="M80.965 1.878c1.15-1.06 2.92-1.06 4.07 0l15.795 14.58 20.969-4.729c1.525-.344 3.059.542 3.524 2.035l6.39 20.523 20.523 6.39c1.493.465 2.379 1.999 2.035 3.524l-4.728 20.969 14.579 15.795c1.061 1.15 1.061 2.92 0 4.07l-14.579 15.795 4.728 20.969c.344 1.525-.542 3.059-2.035 3.524l-20.523 6.39-6.39 20.523c-.465 1.493-1.999 2.379-3.524 2.035l-20.969-4.728-15.795 14.579c-1.15 1.061-2.92 1.061-4.07 0L65.17 149.543l-20.969 4.728c-1.525.344-3.06-.542-3.524-2.035l-6.39-20.523-20.523-6.39c-1.493-.465-2.379-1.999-2.035-3.524l4.728-20.969L1.878 85.035c-1.06-1.15-1.06-2.92 0-4.07l14.58-15.795-4.729-20.969c-.344-1.525.542-3.06 2.035-3.524l20.523-6.39 6.39-20.523c.465-1.493 1.999-2.379 3.524-2.035l20.969 4.728L80.965 1.878z"/>
    <path fill="#fff" fill-rule="evenodd" d="M46.596 80.404c-2.538 2.538-2.538 6.654 0 9.192l19.8 19.799c2.538 2.539 6.653 2.539 9.192 0l43.133-43.133c2.538-2.539 2.538-6.654 0-9.193-2.538-2.538-6.654-2.538-9.192 0L70.991 95.607 55.79 80.404c-2.539-2.539-6.654-2.539-9.193 0z" clip-rule="evenodd"/>
    <defs>
        <linearGradient id="paint0_linear" x1="-45" x2="192" y1="129" y2="47.5" gradientUnits="userSpaceOnUse">
            <stop stop-color="#E4567C"/>
            <stop offset=".484" stop-color="#B0539C"/>
            <stop offset="1" stop-color="#4455E5"/>
        </linearGradient>
    </defs>
</svg>
