<svg width="8" height="5" viewBox="0 5 8 5" fill="none" xmlns="http://www.w3.org/2000/svg">
<path fill-rule="evenodd" clip-rule="evenodd" d="M7.85097 6.13195C7.75345 6.04383 7.63593 6 7.50041 6L0.499594 6C0.364569 6 0.247046 6.04383 0.149028 6.13195C0.0485092 6.22006 -4.0058e-08 6.32411 -2.95293e-08 6.44454C-1.90006e-08 6.56498 0.0485093 6.66903 0.149028 6.75714L3.64768 9.86805C3.7472 9.95617 3.86472 10 4.00025 10C4.13528 10 4.2528 9.95617 4.35182 9.86805L7.85097 6.75714C7.95099 6.66903 8 6.56498 8 6.44454C8 6.32411 7.95099 6.22006 7.85097 6.13195Z" fill="#ADAFAE"/>
</svg>
